M48
; DRILL file KiCad 10.0.6 date 2026-09-23T02:19:31
; FORMAT={-:-/ absolute / metric / decimal}
; #@! TF.CreationDate,2026-09-23T02:19:31+08:00
; #@! TF.GenerationSoftware,Kicad,Pcbnew,10.0.6
; #@! TF.FileFunction,Plated,1,2,PTH
FMAT,2
METRIC
; #@! TA.AperFunction,Plated,PTH,ViaDrill
T1C0.300
; #@! TA.AperFunction,Plated,PTH,ComponentDrill
T2C0.300
; #@! TA.AperFunction,Plated,PTH,ComponentDrill
T3C0.800
; #@! TA.AperFunction,Plated,PTH,ComponentDrill
T4C0.900
; #@! TA.AperFunction,Plated,PTH,ComponentDrill
T5C1.000
; #@! TA.AperFunction,Plated,PTH,ComponentDrill
T6C1.100
; #@! TA.AperFunction,Plated,PTH,ComponentDrill
T7C1.500
%
G90
G05
T1
X1.2Y-1.2
X1.2Y-5.2
X1.2Y-9.2
X1.2Y-13.2
X1.2Y-17.2
X1.2Y-21.2
X1.2Y-25.2
X1.2Y-29.2
X1.2Y-33.2
X1.2Y-37.2
X1.2Y-41.2
X1.2Y-45.2
X1.2Y-49.2
X1.2Y-53.2
X1.2Y-57.2
X1.2Y-61.2
X5.2Y-1.2
X5.2Y-9.2
X5.2Y-13.2
X5.2Y-17.2
X5.2Y-21.2
X5.2Y-25.2
X5.2Y-29.2
X5.2Y-33.2
X5.2Y-37.2
X5.2Y-41.2
X5.2Y-45.2
X5.2Y-49.2
X5.2Y-53.2
X9.2Y-1.2
X9.2Y-5.2
X9.2Y-9.2
X9.2Y-13.2
X9.2Y-49.2
X9.2Y-53.2
X9.2Y-57.2
X9.2Y-61.2
X13.2Y-1.2
X13.2Y-5.2
X13.2Y-9.2
X13.2Y-13.2
X13.2Y-33.2
X13.2Y-49.2
X13.2Y-57.2
X17.2Y-1.2
X17.2Y-5.2
X17.2Y-9.2
X17.2Y-13.2
X17.2Y-37.2
X17.2Y-57.2
X17.4Y-33.8
X21.2Y-1.2
X21.2Y-5.2
X21.2Y-9.2
X21.2Y-41.2
X21.2Y-53.2
X21.2Y-57.2
X25.2Y-1.2
X25.2Y-5.2
X25.2Y-9.2
X25.2Y-37.2
X25.2Y-45.2
X25.2Y-53.2
X25.2Y-57.2
X29.2Y-1.2
X29.2Y-5.2
X29.2Y-9.2
X29.2Y-37.2
X29.2Y-41.2
X29.2Y-57.2
X31.6Y-39.8
X33.2Y-1.2
X33.2Y-5.2
X33.2Y-9.2
X33.2Y-37.2
X33.2Y-41.2
X33.2Y-45.2
X33.2Y-61.2
X34.0Y-49.8
X37.2Y-1.2
X37.2Y-5.2
X37.2Y-37.2
X37.6Y-40.2
X38.0Y-33.8
X39.2Y-48.0
X40.2Y-44.6
X40.6Y-24.8
X41.2Y-1.2
X41.2Y-5.2
X41.2Y-17.2
X41.2Y-37.2
X41.2Y-49.2
X41.2Y-53.2
X41.2Y-57.2
X41.2Y-61.2
X41.6Y-12.6
X42.0Y-48.0
X42.6Y-14.2
X42.8Y-11.6
X42.8Y-27.6
X43.6Y-10.8
X44.2Y-34.6
X45.0Y-42.8
X45.2Y-1.2
X45.2Y-9.2
X45.2Y-45.2
X45.2Y-49.2
X45.2Y-57.2
X45.2Y-61.2
X46.0Y-42.6
X49.2Y-1.2
X49.2Y-5.2
X49.2Y-9.2
X49.2Y-41.2
X49.2Y-49.2
X49.2Y-57.2
X49.2Y-61.2
X50.8Y-35.4
X53.2Y-1.2
X53.2Y-37.2
X53.2Y-41.2
X53.2Y-45.2
X53.2Y-49.2
X53.2Y-53.2
X53.2Y-57.2
X53.2Y-61.2
X57.2Y-1.2
X57.2Y-41.2
X57.2Y-45.2
X57.2Y-49.2
X57.2Y-53.2
X57.2Y-57.2
X57.2Y-61.2
X61.2Y-41.2
X61.2Y-45.2
X61.2Y-49.2
X61.2Y-57.2
X61.2Y-61.2
X61.8Y-35.2
X62.2Y-38.0
X62.8Y-32.2
X65.2Y-45.2
X65.2Y-49.2
X65.2Y-57.2
X65.2Y-61.2
X66.4Y-36.6
X67.0Y-9.2
X67.0Y-10.8
X67.0Y-35.0
X68.8Y-2.2
X69.2Y-4.2
X69.2Y-41.2
X69.2Y-49.2
X69.2Y-53.2
X69.2Y-57.2
X69.2Y-61.2
X70.4Y-3.8
X70.4Y-7.6
X71.4Y-6.2
X71.4Y-38.0
X73.2Y-5.2
X73.2Y-33.2
X73.2Y-41.2
X73.2Y-49.2
X73.2Y-57.2
X73.2Y-61.2
X74.2Y-12.2
X74.6Y-34.8
X77.2Y-1.2
X77.2Y-13.2
X77.2Y-21.2
X77.2Y-33.2
X77.2Y-49.2
X77.2Y-61.2
X81.2Y-1.2
X81.2Y-13.2
X81.2Y-21.2
X81.2Y-49.2
X81.2Y-57.2
X81.2Y-61.2
X81.4Y-11.6
X81.8Y-42.6
X83.6Y-37.8
X85.2Y-1.2
X85.2Y-21.2
X85.2Y-29.2
X85.2Y-33.2
X85.2Y-37.2
X85.2Y-41.2
X85.2Y-49.2
X85.2Y-53.2
X85.2Y-57.2
X85.2Y-61.2
X87.0Y-40.6
X89.2Y-1.2
X89.2Y-21.2
X89.2Y-29.2
X89.2Y-37.2
X89.2Y-45.2
X89.2Y-49.2
X89.2Y-53.2
X89.2Y-57.2
X89.2Y-61.2
X93.2Y-1.2
X93.2Y-9.2
X93.2Y-13.2
X93.2Y-21.2
X93.2Y-33.2
X93.2Y-37.2
X93.2Y-45.2
X93.2Y-49.2
X93.2Y-53.2
X97.2Y-1.2
X97.2Y-9.2
X97.2Y-13.2
X97.2Y-17.2
X97.2Y-21.2
X97.2Y-25.2
X97.2Y-29.2
X97.2Y-33.2
X97.2Y-37.2
X97.2Y-41.2
X97.2Y-45.2
X97.2Y-49.2
X97.2Y-53.2
T2
X66.545Y-4.645
X66.545Y-5.845
X66.545Y-7.045
X67.945Y-4.645
X67.945Y-5.845
X67.945Y-7.045
T3
X45.275Y-38.115
X45.275Y-40.615
X50.075Y-37.575
X50.075Y-42.575
X54.875Y-38.115
X54.875Y-40.615
X55.0Y-7.0
X57.0Y-7.0
X59.0Y-7.0
X59.675Y-37.575
X59.675Y-42.575
X70.195Y-37.575
X70.195Y-45.195
T4
X64.935Y-38.465
X64.935Y-41.005
T5
X11.0Y-8.0
X11.0Y-10.54
X11.0Y-13.08
X11.0Y-15.62
X11.0Y-18.16
X11.0Y-20.7
X11.0Y-23.24
X11.0Y-25.78
X11.0Y-28.32
X11.0Y-30.86
X11.0Y-33.4
X11.0Y-35.94
X11.0Y-38.48
X11.0Y-41.02
X11.0Y-43.56
X11.0Y-46.1
X11.0Y-48.64
X11.0Y-51.18
X11.0Y-53.72
X11.0Y-56.26
X11.0Y-58.8
X11.0Y-61.34
X36.4Y-8.0
X36.4Y-10.54
X36.4Y-13.08
X36.4Y-15.62
X36.4Y-18.16
X36.4Y-20.7
X36.4Y-23.24
X36.4Y-25.78
X36.4Y-28.32
X36.4Y-30.86
X36.4Y-33.4
X36.4Y-35.94
X36.4Y-38.48
X36.4Y-41.02
X36.4Y-43.56
X36.4Y-46.1
X36.4Y-48.64
X36.4Y-51.18
X36.4Y-53.72
X36.4Y-56.26
X36.4Y-58.8
X36.4Y-61.34
X43.6Y-5.4
X46.0Y-32.0
X46.14Y-5.4
X48.54Y-32.0
X51.08Y-32.0
X53.62Y-32.0
X56.16Y-32.0
X58.7Y-32.0
X61.24Y-32.0
X63.78Y-32.0
X66.32Y-32.0
X68.86Y-32.0
X76.5Y-17.5
X76.5Y-26.0
X79.04Y-17.5
X79.04Y-26.0
X81.58Y-17.5
X81.58Y-26.0
X82.0Y-31.0
X82.0Y-33.54
X82.0Y-36.08
X82.0Y-38.62
X82.0Y-41.16
X82.0Y-43.7
X82.0Y-46.24
X84.12Y-17.5
X84.12Y-26.0
X86.66Y-17.5
X86.66Y-26.0
X89.2Y-17.5
X89.2Y-26.0
X90.0Y-42.0
X91.74Y-17.5
X91.74Y-26.0
X92.54Y-42.0
X94.28Y-17.5
X94.28Y-26.0
X95.08Y-42.0
T6
X44.5Y-52.5
X44.5Y-59.0
X49.0Y-52.5
X49.0Y-59.0
X55.5Y-52.5
X55.5Y-59.0
X60.0Y-52.5
X60.0Y-59.0
X66.5Y-52.5
X66.5Y-59.0
X71.0Y-52.5
X71.0Y-59.0
X77.5Y-52.5
X77.5Y-59.0
X82.0Y-52.5
X82.0Y-59.0
T7
X52.9Y-7.0
X61.1Y-7.0
M30
