%TF.GenerationSoftware,KiCad,Pcbnew,10.0.6*%
%TF.CreationDate,2026-09-23T02:19:31+08:00*%
%TF.ProjectId,YD-ESP32-S3-Carrier,59442d45-5350-4333-922d-53332d436172,rev?*%
%TF.SameCoordinates,Original*%
%TF.FileFunction,Drillmap*%
%TF.FilePolarity,Positive*%
%FSLAX45Y45*%
G04 Gerber Fmt 4.5, Leading zero omitted, Abs format (unit mm)*
G04 Created by KiCad (PCBNEW 10.0.6) date 2026-09-23 02:19:31*
%MOMM*%
%LPD*%
G01*
G04 APERTURE LIST*
%ADD10C,0.100000*%
%ADD11C,0.200000*%
%ADD12C,0.320000*%
G04 APERTURE END LIST*
D10*
X0Y0D02*
X10000000Y0D01*
X0Y-6400000D02*
X0Y0D01*
X10000000Y0D02*
X10000000Y-6400000D01*
X10000000Y-6400000D02*
X0Y-6400000D01*
D11*
D12*
X290000Y-290000D02*
X610000Y-610000D01*
X610000Y-290000D02*
X290000Y-610000D01*
X290000Y-5790000D02*
X610000Y-6110000D01*
X610000Y-5790000D02*
X290000Y-6110000D01*
X9390000Y-290000D02*
X9710000Y-610000D01*
X9710000Y-290000D02*
X9390000Y-610000D01*
X9390000Y-5790000D02*
X9710000Y-6110000D01*
X9710000Y-5790000D02*
X9390000Y-6110000D01*
D11*
X255777Y-6716484D02*
X255777Y-6516484D01*
X255777Y-6516484D02*
X303396Y-6516484D01*
X303396Y-6516484D02*
X331967Y-6526008D01*
X331967Y-6526008D02*
X351015Y-6545055D01*
X351015Y-6545055D02*
X360539Y-6564103D01*
X360539Y-6564103D02*
X370062Y-6602198D01*
X370062Y-6602198D02*
X370062Y-6630769D01*
X370062Y-6630769D02*
X360539Y-6668865D01*
X360539Y-6668865D02*
X351015Y-6687912D01*
X351015Y-6687912D02*
X331967Y-6706960D01*
X331967Y-6706960D02*
X303396Y-6716484D01*
X303396Y-6716484D02*
X255777Y-6716484D01*
X455777Y-6716484D02*
X455777Y-6583150D01*
X455777Y-6621246D02*
X465301Y-6602198D01*
X465301Y-6602198D02*
X474824Y-6592674D01*
X474824Y-6592674D02*
X493872Y-6583150D01*
X493872Y-6583150D02*
X512920Y-6583150D01*
X579586Y-6716484D02*
X579586Y-6583150D01*
X579586Y-6516484D02*
X570063Y-6526008D01*
X570063Y-6526008D02*
X579586Y-6535531D01*
X579586Y-6535531D02*
X589110Y-6526008D01*
X589110Y-6526008D02*
X579586Y-6516484D01*
X579586Y-6516484D02*
X579586Y-6535531D01*
X703396Y-6716484D02*
X684348Y-6706960D01*
X684348Y-6706960D02*
X674824Y-6687912D01*
X674824Y-6687912D02*
X674824Y-6516484D01*
X808158Y-6716484D02*
X789110Y-6706960D01*
X789110Y-6706960D02*
X779586Y-6687912D01*
X779586Y-6687912D02*
X779586Y-6516484D01*
X1036729Y-6716484D02*
X1036729Y-6516484D01*
X1036729Y-6516484D02*
X1103396Y-6659341D01*
X1103396Y-6659341D02*
X1170063Y-6516484D01*
X1170063Y-6516484D02*
X1170063Y-6716484D01*
X1351015Y-6716484D02*
X1351015Y-6611722D01*
X1351015Y-6611722D02*
X1341491Y-6592674D01*
X1341491Y-6592674D02*
X1322444Y-6583150D01*
X1322444Y-6583150D02*
X1284348Y-6583150D01*
X1284348Y-6583150D02*
X1265301Y-6592674D01*
X1351015Y-6706960D02*
X1331967Y-6716484D01*
X1331967Y-6716484D02*
X1284348Y-6716484D01*
X1284348Y-6716484D02*
X1265301Y-6706960D01*
X1265301Y-6706960D02*
X1255777Y-6687912D01*
X1255777Y-6687912D02*
X1255777Y-6668865D01*
X1255777Y-6668865D02*
X1265301Y-6649817D01*
X1265301Y-6649817D02*
X1284348Y-6640293D01*
X1284348Y-6640293D02*
X1331967Y-6640293D01*
X1331967Y-6640293D02*
X1351015Y-6630769D01*
X1446253Y-6583150D02*
X1446253Y-6783150D01*
X1446253Y-6592674D02*
X1465301Y-6583150D01*
X1465301Y-6583150D02*
X1503396Y-6583150D01*
X1503396Y-6583150D02*
X1522443Y-6592674D01*
X1522443Y-6592674D02*
X1531967Y-6602198D01*
X1531967Y-6602198D02*
X1541491Y-6621246D01*
X1541491Y-6621246D02*
X1541491Y-6678388D01*
X1541491Y-6678388D02*
X1531967Y-6697436D01*
X1531967Y-6697436D02*
X1522443Y-6706960D01*
X1522443Y-6706960D02*
X1503396Y-6716484D01*
X1503396Y-6716484D02*
X1465301Y-6716484D01*
X1465301Y-6716484D02*
X1446253Y-6706960D01*
X1627205Y-6697436D02*
X1636729Y-6706960D01*
X1636729Y-6706960D02*
X1627205Y-6716484D01*
X1627205Y-6716484D02*
X1617682Y-6706960D01*
X1617682Y-6706960D02*
X1627205Y-6697436D01*
X1627205Y-6697436D02*
X1627205Y-6716484D01*
X1627205Y-6592674D02*
X1636729Y-6602198D01*
X1636729Y-6602198D02*
X1627205Y-6611722D01*
X1627205Y-6611722D02*
X1617682Y-6602198D01*
X1617682Y-6602198D02*
X1627205Y-6592674D01*
X1627205Y-6592674D02*
X1627205Y-6611722D01*
X-205000Y-6945000D02*
X-5000Y-7145000D01*
X-5000Y-6945000D02*
X-205000Y-7145000D01*
X236729Y-6936484D02*
X360539Y-6936484D01*
X360539Y-6936484D02*
X293872Y-7012674D01*
X293872Y-7012674D02*
X322444Y-7012674D01*
X322444Y-7012674D02*
X341491Y-7022198D01*
X341491Y-7022198D02*
X351015Y-7031722D01*
X351015Y-7031722D02*
X360539Y-7050769D01*
X360539Y-7050769D02*
X360539Y-7098388D01*
X360539Y-7098388D02*
X351015Y-7117436D01*
X351015Y-7117436D02*
X341491Y-7126960D01*
X341491Y-7126960D02*
X322444Y-7136484D01*
X322444Y-7136484D02*
X265301Y-7136484D01*
X265301Y-7136484D02*
X246253Y-7126960D01*
X246253Y-7126960D02*
X236729Y-7117436D01*
X446253Y-7117436D02*
X455777Y-7126960D01*
X455777Y-7126960D02*
X446253Y-7136484D01*
X446253Y-7136484D02*
X436729Y-7126960D01*
X436729Y-7126960D02*
X446253Y-7117436D01*
X446253Y-7117436D02*
X446253Y-7136484D01*
X531967Y-6955531D02*
X541491Y-6946008D01*
X541491Y-6946008D02*
X560539Y-6936484D01*
X560539Y-6936484D02*
X608158Y-6936484D01*
X608158Y-6936484D02*
X627205Y-6946008D01*
X627205Y-6946008D02*
X636729Y-6955531D01*
X636729Y-6955531D02*
X646253Y-6974579D01*
X646253Y-6974579D02*
X646253Y-6993627D01*
X646253Y-6993627D02*
X636729Y-7022198D01*
X636729Y-7022198D02*
X522443Y-7136484D01*
X522443Y-7136484D02*
X646253Y-7136484D01*
X770062Y-6936484D02*
X789110Y-6936484D01*
X789110Y-6936484D02*
X808158Y-6946008D01*
X808158Y-6946008D02*
X817682Y-6955531D01*
X817682Y-6955531D02*
X827205Y-6974579D01*
X827205Y-6974579D02*
X836729Y-7012674D01*
X836729Y-7012674D02*
X836729Y-7060293D01*
X836729Y-7060293D02*
X827205Y-7098388D01*
X827205Y-7098388D02*
X817682Y-7117436D01*
X817682Y-7117436D02*
X808158Y-7126960D01*
X808158Y-7126960D02*
X789110Y-7136484D01*
X789110Y-7136484D02*
X770062Y-7136484D01*
X770062Y-7136484D02*
X751015Y-7126960D01*
X751015Y-7126960D02*
X741491Y-7117436D01*
X741491Y-7117436D02*
X731967Y-7098388D01*
X731967Y-7098388D02*
X722443Y-7060293D01*
X722443Y-7060293D02*
X722443Y-7012674D01*
X722443Y-7012674D02*
X731967Y-6974579D01*
X731967Y-6974579D02*
X741491Y-6955531D01*
X741491Y-6955531D02*
X751015Y-6946008D01*
X751015Y-6946008D02*
X770062Y-6936484D01*
X960539Y-6936484D02*
X979586Y-6936484D01*
X979586Y-6936484D02*
X998634Y-6946008D01*
X998634Y-6946008D02*
X1008158Y-6955531D01*
X1008158Y-6955531D02*
X1017682Y-6974579D01*
X1017682Y-6974579D02*
X1027205Y-7012674D01*
X1027205Y-7012674D02*
X1027205Y-7060293D01*
X1027205Y-7060293D02*
X1017682Y-7098388D01*
X1017682Y-7098388D02*
X1008158Y-7117436D01*
X1008158Y-7117436D02*
X998634Y-7126960D01*
X998634Y-7126960D02*
X979586Y-7136484D01*
X979586Y-7136484D02*
X960539Y-7136484D01*
X960539Y-7136484D02*
X941491Y-7126960D01*
X941491Y-7126960D02*
X931967Y-7117436D01*
X931967Y-7117436D02*
X922443Y-7098388D01*
X922443Y-7098388D02*
X912920Y-7060293D01*
X912920Y-7060293D02*
X912920Y-7012674D01*
X912920Y-7012674D02*
X922443Y-6974579D01*
X922443Y-6974579D02*
X931967Y-6955531D01*
X931967Y-6955531D02*
X941491Y-6946008D01*
X941491Y-6946008D02*
X960539Y-6936484D01*
X1112920Y-7136484D02*
X1112920Y-7003150D01*
X1112920Y-7022198D02*
X1122444Y-7012674D01*
X1122444Y-7012674D02*
X1141491Y-7003150D01*
X1141491Y-7003150D02*
X1170063Y-7003150D01*
X1170063Y-7003150D02*
X1189110Y-7012674D01*
X1189110Y-7012674D02*
X1198634Y-7031722D01*
X1198634Y-7031722D02*
X1198634Y-7136484D01*
X1198634Y-7031722D02*
X1208158Y-7012674D01*
X1208158Y-7012674D02*
X1227205Y-7003150D01*
X1227205Y-7003150D02*
X1255777Y-7003150D01*
X1255777Y-7003150D02*
X1274825Y-7012674D01*
X1274825Y-7012674D02*
X1284348Y-7031722D01*
X1284348Y-7031722D02*
X1284348Y-7136484D01*
X1379586Y-7136484D02*
X1379586Y-7003150D01*
X1379586Y-7022198D02*
X1389110Y-7012674D01*
X1389110Y-7012674D02*
X1408158Y-7003150D01*
X1408158Y-7003150D02*
X1436729Y-7003150D01*
X1436729Y-7003150D02*
X1455777Y-7012674D01*
X1455777Y-7012674D02*
X1465301Y-7031722D01*
X1465301Y-7031722D02*
X1465301Y-7136484D01*
X1465301Y-7031722D02*
X1474824Y-7012674D01*
X1474824Y-7012674D02*
X1493872Y-7003150D01*
X1493872Y-7003150D02*
X1522443Y-7003150D01*
X1522443Y-7003150D02*
X1541491Y-7012674D01*
X1541491Y-7012674D02*
X1551015Y-7031722D01*
X1551015Y-7031722D02*
X1551015Y-7136484D01*
X1941491Y-6926960D02*
X1770063Y-7184103D01*
X2198634Y-6936484D02*
X2217682Y-6936484D01*
X2217682Y-6936484D02*
X2236729Y-6946008D01*
X2236729Y-6946008D02*
X2246253Y-6955531D01*
X2246253Y-6955531D02*
X2255777Y-6974579D01*
X2255777Y-6974579D02*
X2265301Y-7012674D01*
X2265301Y-7012674D02*
X2265301Y-7060293D01*
X2265301Y-7060293D02*
X2255777Y-7098388D01*
X2255777Y-7098388D02*
X2246253Y-7117436D01*
X2246253Y-7117436D02*
X2236729Y-7126960D01*
X2236729Y-7126960D02*
X2217682Y-7136484D01*
X2217682Y-7136484D02*
X2198634Y-7136484D01*
X2198634Y-7136484D02*
X2179587Y-7126960D01*
X2179587Y-7126960D02*
X2170063Y-7117436D01*
X2170063Y-7117436D02*
X2160539Y-7098388D01*
X2160539Y-7098388D02*
X2151015Y-7060293D01*
X2151015Y-7060293D02*
X2151015Y-7012674D01*
X2151015Y-7012674D02*
X2160539Y-6974579D01*
X2160539Y-6974579D02*
X2170063Y-6955531D01*
X2170063Y-6955531D02*
X2179587Y-6946008D01*
X2179587Y-6946008D02*
X2198634Y-6936484D01*
X2351015Y-7117436D02*
X2360539Y-7126960D01*
X2360539Y-7126960D02*
X2351015Y-7136484D01*
X2351015Y-7136484D02*
X2341491Y-7126960D01*
X2341491Y-7126960D02*
X2351015Y-7117436D01*
X2351015Y-7117436D02*
X2351015Y-7136484D01*
X2551015Y-7136484D02*
X2436729Y-7136484D01*
X2493872Y-7136484D02*
X2493872Y-6936484D01*
X2493872Y-6936484D02*
X2474825Y-6965055D01*
X2474825Y-6965055D02*
X2455777Y-6984103D01*
X2455777Y-6984103D02*
X2436729Y-6993627D01*
X2627206Y-6955531D02*
X2636729Y-6946008D01*
X2636729Y-6946008D02*
X2655777Y-6936484D01*
X2655777Y-6936484D02*
X2703396Y-6936484D01*
X2703396Y-6936484D02*
X2722444Y-6946008D01*
X2722444Y-6946008D02*
X2731968Y-6955531D01*
X2731968Y-6955531D02*
X2741491Y-6974579D01*
X2741491Y-6974579D02*
X2741491Y-6993627D01*
X2741491Y-6993627D02*
X2731968Y-7022198D01*
X2731968Y-7022198D02*
X2617682Y-7136484D01*
X2617682Y-7136484D02*
X2741491Y-7136484D01*
X2912920Y-6936484D02*
X2874825Y-6936484D01*
X2874825Y-6936484D02*
X2855777Y-6946008D01*
X2855777Y-6946008D02*
X2846253Y-6955531D01*
X2846253Y-6955531D02*
X2827206Y-6984103D01*
X2827206Y-6984103D02*
X2817682Y-7022198D01*
X2817682Y-7022198D02*
X2817682Y-7098388D01*
X2817682Y-7098388D02*
X2827206Y-7117436D01*
X2827206Y-7117436D02*
X2836729Y-7126960D01*
X2836729Y-7126960D02*
X2855777Y-7136484D01*
X2855777Y-7136484D02*
X2893872Y-7136484D01*
X2893872Y-7136484D02*
X2912920Y-7126960D01*
X2912920Y-7126960D02*
X2922444Y-7117436D01*
X2922444Y-7117436D02*
X2931967Y-7098388D01*
X2931967Y-7098388D02*
X2931967Y-7050769D01*
X2931967Y-7050769D02*
X2922444Y-7031722D01*
X2922444Y-7031722D02*
X2912920Y-7022198D01*
X2912920Y-7022198D02*
X2893872Y-7012674D01*
X2893872Y-7012674D02*
X2855777Y-7012674D01*
X2855777Y-7012674D02*
X2836729Y-7022198D01*
X2836729Y-7022198D02*
X2827206Y-7031722D01*
X2827206Y-7031722D02*
X2817682Y-7050769D01*
X3055777Y-6936484D02*
X3074825Y-6936484D01*
X3074825Y-6936484D02*
X3093872Y-6946008D01*
X3093872Y-6946008D02*
X3103396Y-6955531D01*
X3103396Y-6955531D02*
X3112920Y-6974579D01*
X3112920Y-6974579D02*
X3122444Y-7012674D01*
X3122444Y-7012674D02*
X3122444Y-7060293D01*
X3122444Y-7060293D02*
X3112920Y-7098388D01*
X3112920Y-7098388D02*
X3103396Y-7117436D01*
X3103396Y-7117436D02*
X3093872Y-7126960D01*
X3093872Y-7126960D02*
X3074825Y-7136484D01*
X3074825Y-7136484D02*
X3055777Y-7136484D01*
X3055777Y-7136484D02*
X3036729Y-7126960D01*
X3036729Y-7126960D02*
X3027206Y-7117436D01*
X3027206Y-7117436D02*
X3017682Y-7098388D01*
X3017682Y-7098388D02*
X3008158Y-7060293D01*
X3008158Y-7060293D02*
X3008158Y-7012674D01*
X3008158Y-7012674D02*
X3017682Y-6974579D01*
X3017682Y-6974579D02*
X3027206Y-6955531D01*
X3027206Y-6955531D02*
X3036729Y-6946008D01*
X3036729Y-6946008D02*
X3055777Y-6936484D01*
X3198634Y-6936484D02*
X3198634Y-6974579D01*
X3274825Y-6936484D02*
X3274825Y-6974579D01*
X3570063Y-7212674D02*
X3560539Y-7203150D01*
X3560539Y-7203150D02*
X3541491Y-7174579D01*
X3541491Y-7174579D02*
X3531968Y-7155531D01*
X3531968Y-7155531D02*
X3522444Y-7126960D01*
X3522444Y-7126960D02*
X3512920Y-7079341D01*
X3512920Y-7079341D02*
X3512920Y-7041246D01*
X3512920Y-7041246D02*
X3522444Y-6993627D01*
X3522444Y-6993627D02*
X3531968Y-6965055D01*
X3531968Y-6965055D02*
X3541491Y-6946008D01*
X3541491Y-6946008D02*
X3560539Y-6917436D01*
X3560539Y-6917436D02*
X3570063Y-6907912D01*
X3731968Y-7003150D02*
X3731968Y-7136484D01*
X3684348Y-6926960D02*
X3636729Y-7069817D01*
X3636729Y-7069817D02*
X3760539Y-7069817D01*
X3989110Y-7136484D02*
X3989110Y-6936484D01*
X4074825Y-7136484D02*
X4074825Y-7031722D01*
X4074825Y-7031722D02*
X4065301Y-7012674D01*
X4065301Y-7012674D02*
X4046253Y-7003150D01*
X4046253Y-7003150D02*
X4017682Y-7003150D01*
X4017682Y-7003150D02*
X3998634Y-7012674D01*
X3998634Y-7012674D02*
X3989110Y-7022198D01*
X4198634Y-7136484D02*
X4179587Y-7126960D01*
X4179587Y-7126960D02*
X4170063Y-7117436D01*
X4170063Y-7117436D02*
X4160539Y-7098388D01*
X4160539Y-7098388D02*
X4160539Y-7041246D01*
X4160539Y-7041246D02*
X4170063Y-7022198D01*
X4170063Y-7022198D02*
X4179587Y-7012674D01*
X4179587Y-7012674D02*
X4198634Y-7003150D01*
X4198634Y-7003150D02*
X4227206Y-7003150D01*
X4227206Y-7003150D02*
X4246253Y-7012674D01*
X4246253Y-7012674D02*
X4255777Y-7022198D01*
X4255777Y-7022198D02*
X4265301Y-7041246D01*
X4265301Y-7041246D02*
X4265301Y-7098388D01*
X4265301Y-7098388D02*
X4255777Y-7117436D01*
X4255777Y-7117436D02*
X4246253Y-7126960D01*
X4246253Y-7126960D02*
X4227206Y-7136484D01*
X4227206Y-7136484D02*
X4198634Y-7136484D01*
X4379587Y-7136484D02*
X4360539Y-7126960D01*
X4360539Y-7126960D02*
X4351015Y-7107912D01*
X4351015Y-7107912D02*
X4351015Y-6936484D01*
X4531968Y-7126960D02*
X4512920Y-7136484D01*
X4512920Y-7136484D02*
X4474825Y-7136484D01*
X4474825Y-7136484D02*
X4455777Y-7126960D01*
X4455777Y-7126960D02*
X4446253Y-7107912D01*
X4446253Y-7107912D02*
X4446253Y-7031722D01*
X4446253Y-7031722D02*
X4455777Y-7012674D01*
X4455777Y-7012674D02*
X4474825Y-7003150D01*
X4474825Y-7003150D02*
X4512920Y-7003150D01*
X4512920Y-7003150D02*
X4531968Y-7012674D01*
X4531968Y-7012674D02*
X4541492Y-7031722D01*
X4541492Y-7031722D02*
X4541492Y-7050769D01*
X4541492Y-7050769D02*
X4446253Y-7069817D01*
X4617682Y-7126960D02*
X4636730Y-7136484D01*
X4636730Y-7136484D02*
X4674825Y-7136484D01*
X4674825Y-7136484D02*
X4693873Y-7126960D01*
X4693873Y-7126960D02*
X4703396Y-7107912D01*
X4703396Y-7107912D02*
X4703396Y-7098388D01*
X4703396Y-7098388D02*
X4693873Y-7079341D01*
X4693873Y-7079341D02*
X4674825Y-7069817D01*
X4674825Y-7069817D02*
X4646253Y-7069817D01*
X4646253Y-7069817D02*
X4627206Y-7060293D01*
X4627206Y-7060293D02*
X4617682Y-7041246D01*
X4617682Y-7041246D02*
X4617682Y-7031722D01*
X4617682Y-7031722D02*
X4627206Y-7012674D01*
X4627206Y-7012674D02*
X4646253Y-7003150D01*
X4646253Y-7003150D02*
X4674825Y-7003150D01*
X4674825Y-7003150D02*
X4693873Y-7012674D01*
X4770063Y-7212674D02*
X4779587Y-7203150D01*
X4779587Y-7203150D02*
X4798634Y-7174579D01*
X4798634Y-7174579D02*
X4808158Y-7155531D01*
X4808158Y-7155531D02*
X4817682Y-7126960D01*
X4817682Y-7126960D02*
X4827206Y-7079341D01*
X4827206Y-7079341D02*
X4827206Y-7041246D01*
X4827206Y-7041246D02*
X4817682Y-6993627D01*
X4817682Y-6993627D02*
X4808158Y-6965055D01*
X4808158Y-6965055D02*
X4798634Y-6946008D01*
X4798634Y-6946008D02*
X4779587Y-6917436D01*
X4779587Y-6917436D02*
X4770063Y-6907912D01*
X5131968Y-7212674D02*
X5122444Y-7203150D01*
X5122444Y-7203150D02*
X5103396Y-7174579D01*
X5103396Y-7174579D02*
X5093873Y-7155531D01*
X5093873Y-7155531D02*
X5084349Y-7126960D01*
X5084349Y-7126960D02*
X5074825Y-7079341D01*
X5074825Y-7079341D02*
X5074825Y-7041246D01*
X5074825Y-7041246D02*
X5084349Y-6993627D01*
X5084349Y-6993627D02*
X5093873Y-6965055D01*
X5093873Y-6965055D02*
X5103396Y-6946008D01*
X5103396Y-6946008D02*
X5122444Y-6917436D01*
X5122444Y-6917436D02*
X5131968Y-6907912D01*
X5208158Y-7003150D02*
X5208158Y-7136484D01*
X5208158Y-7022198D02*
X5217682Y-7012674D01*
X5217682Y-7012674D02*
X5236730Y-7003150D01*
X5236730Y-7003150D02*
X5265301Y-7003150D01*
X5265301Y-7003150D02*
X5284349Y-7012674D01*
X5284349Y-7012674D02*
X5293873Y-7031722D01*
X5293873Y-7031722D02*
X5293873Y-7136484D01*
X5417682Y-7136484D02*
X5398634Y-7126960D01*
X5398634Y-7126960D02*
X5389111Y-7117436D01*
X5389111Y-7117436D02*
X5379587Y-7098388D01*
X5379587Y-7098388D02*
X5379587Y-7041246D01*
X5379587Y-7041246D02*
X5389111Y-7022198D01*
X5389111Y-7022198D02*
X5398634Y-7012674D01*
X5398634Y-7012674D02*
X5417682Y-7003150D01*
X5417682Y-7003150D02*
X5446254Y-7003150D01*
X5446254Y-7003150D02*
X5465301Y-7012674D01*
X5465301Y-7012674D02*
X5474825Y-7022198D01*
X5474825Y-7022198D02*
X5484349Y-7041246D01*
X5484349Y-7041246D02*
X5484349Y-7098388D01*
X5484349Y-7098388D02*
X5474825Y-7117436D01*
X5474825Y-7117436D02*
X5465301Y-7126960D01*
X5465301Y-7126960D02*
X5446254Y-7136484D01*
X5446254Y-7136484D02*
X5417682Y-7136484D01*
X5541492Y-7003150D02*
X5617682Y-7003150D01*
X5570063Y-6936484D02*
X5570063Y-7107912D01*
X5570063Y-7107912D02*
X5579587Y-7126960D01*
X5579587Y-7126960D02*
X5598634Y-7136484D01*
X5598634Y-7136484D02*
X5617682Y-7136484D01*
X5836730Y-7003150D02*
X5836730Y-7203150D01*
X5836730Y-7012674D02*
X5855777Y-7003150D01*
X5855777Y-7003150D02*
X5893873Y-7003150D01*
X5893873Y-7003150D02*
X5912920Y-7012674D01*
X5912920Y-7012674D02*
X5922444Y-7022198D01*
X5922444Y-7022198D02*
X5931968Y-7041246D01*
X5931968Y-7041246D02*
X5931968Y-7098388D01*
X5931968Y-7098388D02*
X5922444Y-7117436D01*
X5922444Y-7117436D02*
X5912920Y-7126960D01*
X5912920Y-7126960D02*
X5893873Y-7136484D01*
X5893873Y-7136484D02*
X5855777Y-7136484D01*
X5855777Y-7136484D02*
X5836730Y-7126960D01*
X6046253Y-7136484D02*
X6027206Y-7126960D01*
X6027206Y-7126960D02*
X6017682Y-7107912D01*
X6017682Y-7107912D02*
X6017682Y-6936484D01*
X6208158Y-7136484D02*
X6208158Y-7031722D01*
X6208158Y-7031722D02*
X6198634Y-7012674D01*
X6198634Y-7012674D02*
X6179587Y-7003150D01*
X6179587Y-7003150D02*
X6141492Y-7003150D01*
X6141492Y-7003150D02*
X6122444Y-7012674D01*
X6208158Y-7126960D02*
X6189111Y-7136484D01*
X6189111Y-7136484D02*
X6141492Y-7136484D01*
X6141492Y-7136484D02*
X6122444Y-7126960D01*
X6122444Y-7126960D02*
X6112920Y-7107912D01*
X6112920Y-7107912D02*
X6112920Y-7088865D01*
X6112920Y-7088865D02*
X6122444Y-7069817D01*
X6122444Y-7069817D02*
X6141492Y-7060293D01*
X6141492Y-7060293D02*
X6189111Y-7060293D01*
X6189111Y-7060293D02*
X6208158Y-7050769D01*
X6274825Y-7003150D02*
X6351015Y-7003150D01*
X6303396Y-6936484D02*
X6303396Y-7107912D01*
X6303396Y-7107912D02*
X6312920Y-7126960D01*
X6312920Y-7126960D02*
X6331968Y-7136484D01*
X6331968Y-7136484D02*
X6351015Y-7136484D01*
X6493873Y-7126960D02*
X6474825Y-7136484D01*
X6474825Y-7136484D02*
X6436730Y-7136484D01*
X6436730Y-7136484D02*
X6417682Y-7126960D01*
X6417682Y-7126960D02*
X6408158Y-7107912D01*
X6408158Y-7107912D02*
X6408158Y-7031722D01*
X6408158Y-7031722D02*
X6417682Y-7012674D01*
X6417682Y-7012674D02*
X6436730Y-7003150D01*
X6436730Y-7003150D02*
X6474825Y-7003150D01*
X6474825Y-7003150D02*
X6493873Y-7012674D01*
X6493873Y-7012674D02*
X6503396Y-7031722D01*
X6503396Y-7031722D02*
X6503396Y-7050769D01*
X6503396Y-7050769D02*
X6408158Y-7069817D01*
X6674825Y-7136484D02*
X6674825Y-6936484D01*
X6674825Y-7126960D02*
X6655777Y-7136484D01*
X6655777Y-7136484D02*
X6617682Y-7136484D01*
X6617682Y-7136484D02*
X6598634Y-7126960D01*
X6598634Y-7126960D02*
X6589111Y-7117436D01*
X6589111Y-7117436D02*
X6579587Y-7098388D01*
X6579587Y-7098388D02*
X6579587Y-7041246D01*
X6579587Y-7041246D02*
X6589111Y-7022198D01*
X6589111Y-7022198D02*
X6598634Y-7012674D01*
X6598634Y-7012674D02*
X6617682Y-7003150D01*
X6617682Y-7003150D02*
X6655777Y-7003150D01*
X6655777Y-7003150D02*
X6674825Y-7012674D01*
X6751015Y-7212674D02*
X6760539Y-7203150D01*
X6760539Y-7203150D02*
X6779587Y-7174579D01*
X6779587Y-7174579D02*
X6789111Y-7155531D01*
X6789111Y-7155531D02*
X6798634Y-7126960D01*
X6798634Y-7126960D02*
X6808158Y-7079341D01*
X6808158Y-7079341D02*
X6808158Y-7041246D01*
X6808158Y-7041246D02*
X6798634Y-6993627D01*
X6798634Y-6993627D02*
X6789111Y-6965055D01*
X6789111Y-6965055D02*
X6779587Y-6946008D01*
X6779587Y-6946008D02*
X6760539Y-6917436D01*
X6760539Y-6917436D02*
X6751015Y-6907912D01*
M02*
